<?xml version="1.0" encoding="UTF-8"?>
<svg xmlns="http://www.w3.org/2000/svg" xmlns:xlink="http://www.w3.org/1999/xlink" width="141.7pt" height="141.8pt" viewBox="0 0 141.7 141.8" version="1.1">
<defs>
<clipPath id="clip1">
  <path d="M 0 0 L 141.699219 0 L 141.699219 141.800781 L 0 141.800781 Z M 0 0 "/>
</clipPath>
<clipPath id="clip2">
  <path d="M 0 0 L 141.699219 0 L 141.699219 141.800781 L 0 141.800781 Z M 0 0 "/>
</clipPath>
</defs>
<g id="surface1">
<g clip-path="url(#clip1)" clip-rule="nonzero">
<path style=" stroke:none;fill-rule:evenodd;fill:rgb(100%,100%,100%);fill-opacity:1;" d="M 0 141.730469 L 141.730469 141.730469 L 141.730469 0 L 0 0 Z M 0 141.730469 "/>
</g>
<path style=" stroke:none;fill-rule:evenodd;fill:rgb(66.992188%,25.488281%,49.804688%);fill-opacity:1;" d="M 70.867188 4.402344 C 107.574219 4.402344 137.328125 34.160156 137.328125 70.867188 C 137.328125 107.574219 107.574219 137.328125 70.867188 137.328125 C 34.160156 137.328125 4.402344 107.574219 4.402344 70.867188 C 4.402344 34.160156 34.160156 4.402344 70.867188 4.402344 Z M 70.867188 4.402344 "/>
<g clip-path="url(#clip2)" clip-rule="nonzero">
<path style="fill:none;stroke-width:9.921;stroke-linecap:butt;stroke-linejoin:miter;stroke:rgb(66.992188%,25.488281%,49.804688%);stroke-opacity:1;stroke-miterlimit:4;" d="M 708.671875 1373.976563 C 1075.742188 1373.976563 1373.28125 1076.398438 1373.28125 709.328125 C 1373.28125 342.257813 1075.742188 44.71875 708.671875 44.71875 C 341.601563 44.71875 44.023438 342.257813 44.023438 709.328125 C 44.023438 1076.398438 341.601563 1373.976563 708.671875 1373.976563 Z M 708.671875 1373.976563 " transform="matrix(0.1,0,0,-0.1,0,141.8)"/>
</g>
<path style="fill:none;stroke-width:20.927;stroke-linecap:round;stroke-linejoin:round;stroke:rgb(100%,79.6875%,0%);stroke-opacity:1;stroke-miterlimit:4;" d="M 708.671875 1282.882813 C 1025.429688 1282.882813 1282.1875 1026.085938 1282.1875 709.328125 C 1282.1875 392.570313 1025.429688 135.8125 708.671875 135.8125 C 391.914063 135.8125 135.117188 392.570313 135.117188 709.328125 C 135.117188 1026.085938 391.914063 1282.882813 708.671875 1282.882813 Z M 708.671875 1282.882813 " transform="matrix(0.1,0,0,-0.1,0,141.8)"/>
<path style="fill:none;stroke-width:21.385;stroke-linecap:round;stroke-linejoin:round;stroke:rgb(100%,79.6875%,0%);stroke-opacity:1;stroke-miterlimit:4;" d="M 708.671875 1343.585938 C 1058.945313 1343.585938 1342.929688 1059.640625 1342.929688 709.328125 C 1342.929688 359.054688 1058.945313 75.070313 708.671875 75.070313 C 358.359375 75.070313 74.414063 359.054688 74.414063 709.328125 C 74.414063 1059.640625 358.359375 1343.585938 708.671875 1343.585938 Z M 708.671875 1343.585938 " transform="matrix(0.1,0,0,-0.1,0,141.8)"/>
<path style=" stroke:none;fill-rule:evenodd;fill:rgb(66.992188%,25.488281%,49.804688%);fill-opacity:1;" d="M 129.820313 63.78125 C 130.097656 66.105469 130.242188 68.46875 130.242188 70.867188 C 130.242188 103.652344 103.652344 130.242188 70.867188 130.242188 C 38.078125 130.242188 11.488281 103.652344 11.488281 70.867188 C 11.488281 68.46875 11.636719 66.105469 11.910156 63.78125 Z M 129.820313 63.78125 "/>
<path style=" stroke:none;fill-rule:evenodd;fill:rgb(100%,79.6875%,0%);fill-opacity:1;" d="M 47.417969 22.457031 C 63.050781 13.851563 79.691406 15.367188 95.324219 22.960938 L 90.097656 68.839844 C 100.5 68.839844 110.058594 68.839844 120.460938 68.839844 C 120.683594 97.292969 93.738281 118.632813 70.527344 118.773438 C 47.316406 118.914063 22 92.121094 22.785156 69.433594 L 52.984375 69.433594 Z M 47.417969 22.457031 "/>
</g>
</svg>
